<?xml version="1.0" encoding="UTF-8"?>
<!-- Generator: Adobe Illustrator 15.0.2, SVG Export Plug-In . SVG Version: 6.00 Build 0)  -->
<!DOCTYPE svg PUBLIC "-//W3C//DTD SVG 1.1//EN" "http://www.w3.org/Graphics/SVG/1.1/DTD/svg11.dtd">
<svg xmlns="http://www.w3.org/2000/svg" xmlns:xlink="http://www.w3.org/1999/xlink" version="1.1" id="Layer_1" x="0px" y="0px" width="512px" height="657.839px" viewBox="-0.329 0 512 657.839" enable-background="new -0.329 0 512 657.839" xml:space="preserve">
<g>
	<path d="M481.495,0H29.848C13.183,0-0.329,13.512-0.329,30.176v597.486c0,16.665,13.512,30.177,30.176,30.177h451.647   c16.665,0,30.177-13.512,30.177-30.177V30.176C511.672,13.512,498.16,0,481.495,0z M451.318,597.486H60.024V60.353h391.294V597.486   z" fill="#000000"/>
	<path d="M157.57,428.26h88.982c14.583,0,26.404-11.824,26.404-26.404c0-14.595-11.821-26.404-26.404-26.404H157.57   c-14.583,0-26.404,11.81-26.404,26.404C131.166,416.428,142.987,428.26,157.57,428.26z" fill="#000000"/>
	<path d="M161.748,309.746h179.18c14.587,0,26.404-11.82,26.404-26.404s-11.817-26.404-26.404-26.404h-179.18   c-14.584,0-26.404,11.82-26.404,26.404S147.172,309.746,161.748,309.746z" fill="#000000"/>
	<path d="M161.748,191.229h179.18c14.587,0,26.404-11.82,26.404-26.404c0-14.583-11.817-26.404-26.404-26.404h-179.18   c-14.584,0-26.404,11.821-26.404,26.404C135.344,179.408,147.172,191.229,161.748,191.229z" fill="#000000"/>
	<path d="M321.257,383.194c-4.98,4.899-7.766,11.699-7.766,18.646c0,6.94,2.785,13.711,7.766,18.705   c4.892,4.899,11.699,7.699,18.639,7.699c6.94,0,13.719-2.8,18.64-7.699c4.98-4.979,7.765-11.765,7.765-18.705   c0-6.947-2.784-13.732-7.765-18.646C348.634,373.314,331.07,373.389,321.257,383.194z" fill="#000000"/>
</g>
</svg>
