<?xml version="1.0" encoding="UTF-8" standalone="no"?>
<!-- Generated by IcoMoon.io -->

<svg
   xmlns:dc="http://purl.org/dc/elements/1.1/"
   xmlns:cc="http://creativecommons.org/ns#"
   xmlns:rdf="http://www.w3.org/1999/02/22-rdf-syntax-ns#"
   xmlns:svg="http://www.w3.org/2000/svg"
   xmlns="http://www.w3.org/2000/svg"
   xmlns:sodipodi="http://sodipodi.sourceforge.net/DTD/sodipodi-0.dtd"
   xmlns:inkscape="http://www.inkscape.org/namespaces/inkscape"
   version="1.1"
   width="477.38901"
   height="431.064"
   viewBox="0 0 477.38901 431.064"
   id="svg2"
   inkscape:version="0.91 r13725"
   sodipodi:docname="factory.svg">
  <metadata
     id="metadata16">
    <rdf:RDF>
      <cc:Work
         rdf:about="">
        <dc:format>image/svg+xml</dc:format>
        <dc:type
           rdf:resource="http://purl.org/dc/dcmitype/StillImage" />
        <dc:title></dc:title>
      </cc:Work>
    </rdf:RDF>
  </metadata>
  <defs
     id="defs14" />
  <sodipodi:namedview
     pagecolor="#ffffff"
     bordercolor="#666666"
     borderopacity="1"
     objecttolerance="10"
     gridtolerance="10"
     guidetolerance="10"
     inkscape:pageopacity="0"
     inkscape:pageshadow="2"
     inkscape:window-width="640"
     inkscape:window-height="480"
     id="namedview12"
     showgrid="false"
     fit-margin-top="0"
     fit-margin-left="0"
     fit-margin-right="0"
     fit-margin-bottom="0"
     inkscape:zoom="0.4609375"
     inkscape:cx="238.695"
     inkscape:cy="215.532"
     inkscape:window-x="0"
     inkscape:window-y="0"
     inkscape:window-maximized="0"
     inkscape:current-layer="svg2" />
  <g
     id="g4"
     transform="translate(-17.305,-40.468)" />
  <path
     d="m 358.022,229.786 0,61.983 -119.317,-61.983 0,61.983 -119.358,-61.983 0,61.983 L 0,229.786 l 0,201.278 477.389,0 0,-139.305 -119.368,-61.973 z m -205.537,175.821 -119.326,0 0,-70.103 119.326,0 0,70.103 z m 145.653,0 -118.876,0 0,-70.103 118.866,0 0,70.103 z m 146.095,0 -119.347,0 0,-70.103 119.347,0 0,70.103 z"
     id="path6"
     inkscape:connector-curvature="0"
     style="fill:#000000" />
  <path
     d="m 313.426,36.967 -32.286,0 -9.329,200.038 52.224,27.577 z"
     id="path8"
     inkscape:connector-curvature="0"
     style="fill:#000000" />
  <path
     d="m 194.939,0 -33.126,0 -9.328,237.005 52.194,27.577 z"
     id="path10"
     inkscape:connector-curvature="0"
     style="fill:#000000" />
</svg>
