<?xml version="1.0" encoding="UTF-8" standalone="no"?>
<svg width="595.28" xmlns="http://www.w3.org/2000/svg" height="841.89">
 <g id="g19955">
  <g id="g19957" transform="rotate(38.396 251.7 373.58)" stroke="#000" stroke-width="6" fill="#fff">
   <path id="path19959" d="m201.79-56.572c34.026-23.814 85.061-17.088 151.85 18.373 4.6352 2.4608 7.3426 6.9632 7.3426 12.211v19.072l-3.534 2.9229-3.534-2.9229-3.534 2.9229-3.5339-2.9229-3.5341 2.9229-3.5325-2.9229-3.5339 2.9229-3.5341-2.9229-3.534 2.9229-3.5339-2.9229-3.534 2.9229-3.534-2.9229-3.5325 2.9229-3.5341-2.9229-3.534 2.9229-3.534-2.9229-3.534 2.9229-3.534-2.9229-3.534 2.9229-3.5326-2.9229-3.5339 2.9229-3.534-2.9229-3.534 2.9229-3.534-2.9229-3.534 2.9229-3.534-2.9229-3.5325 2.9229-3.534-2.9229-3.534 2.9229-3.534-2.9229h-1.5367c-3.0469 0-5.5299 2.483-5.5299 5.5298v333.79c0 18.588-15.208 33.794-33.794 33.794-18.588 0-33.794-15.206-33.794-33.794v-338.4c0-24.875-0.86945-34.937 21.477-50.577z"/>
   <path id="path19961" d="m171.67 83.546l93.787-15.736 1.6105 0.313-1.6105 8.2844 88.208 17.146c0.65991 0.33656 1.3788 0.54916 2.1168 0.62444v307.14h-12.998v-247.06c0-15.442-23.396-15.441-23.396 0v247.06h-45.484c0.71597-32.004-1.6902-74.527-4.5482-82.289-7.7366-21.014-64.585-19.819-60.448-48.091h56.55v-54.29h-79.747c-7.9478 0-14.777-3.8396-18.904-10.632-23.731-39.051-25.68-78.027-11.703-109.6 3.1-7.006 9.0106-11.594 16.567-12.862zm167.37 18.976c2.5125 0 4.5496 2.0372 4.5496 4.5496 0 2.511-2.0371 4.5482-4.5496 4.5482-2.511 0-4.5481-2.0371-4.5481-4.5482 0-2.5124 2.0371-4.5496 4.5481-4.5496z"/>
   <path id="path19963" d="m164.05 223.11h93.604v41.661h-93.604v-41.661z"/>
   <path id="path19965" d="m265.46 76.407l88.772 17.255 5.4398-27.987-2.0829-3.3037-3.4646 2.2261-2.0843-3.3037-3.4647 2.2246-2.0829-3.3037-3.4661 2.2261-2.0814-3.3037-3.4661 2.2246-2.0829-3.3037-3.4646 2.2261-2.0844-3.3052-3.4646 2.2261-2.0829-3.3037-3.4661 2.2246-2.0829-3.3037-3.4647 2.2261-2.0829-3.3037-3.4646 2.2247-2.0845-3.3037-3.4646 2.2261-2.0829-3.3052-3.4661 2.2261-2.0829-3.3037-3.4646 2.2261-2.0829-3.3051-3.4661 2.2261-2.0815-3.3037-3.4661 2.2246-2.0829-3.3037-3.4645 2.2261-2.0829-3.3037-3.4661 2.2246-5.4398 27.987z"/>
   <path id="path19967" d="m267.42 401.31h94.851v332.07c0 51.785-19.208 94.154-42.682 94.154h-9.486c-23.474 0-42.682-42.37-42.682-94.154v-332.07zm47.425 315.75c7.8946 0 14.297 16.006 14.297 35.744 0 19.737-6.4022 35.743-14.297 35.743-7.8946 0-14.298-16.006-14.298-35.743 0-19.738 6.4038-35.744 14.298-35.744z"/>
   <path id="path19969" d="m319.39 401.31h23.396v288.79c0 5.3305-4.3474 9.6779-9.6779 9.6779h-4.0418c-5.329 0-9.6764-4.3474-9.6764-9.6779v-288.79z"/>
  </g>
 </g>
</svg>
